<svg width="300" height="300" viewBox="0 0 102 102" xmlns="http://www.w3.org/2000/svg" xmlns:xlink="http://www.w3.org/1999/xlink"><defs><path id="path-1" d="M0 0h102v102H0z"/></defs><g fill="none" fill-rule="evenodd"><g id="Group-7"><g id="Group-3"><mask id="mask-2" fill="#fff"><use xlink:href="#path-1"/></mask><path d="M38.382 15.52h-3.168l-.95 7.738c-.26 2.128-1.686 3.375-3.504 3.375-1.868 0-2.787-1.196-2.525-3.324l.956-7.79h-3.14l-1.07 8.724c-.393 3.193 1.143 5.27 4.233 5.27 2.128 0 3.537-1.117 4.58-2.414l-.262 2.128H36.7l1.684-13.708zM7.052 29.228h8.41c4.05 0 6.938-1.74 7.337-4.984l.005-.052c.303-2.467-1.027-3.687-3.066-4.414 1.433-.7 2.824-1.87 3.092-4.05l.007-.052c.148-1.22-.146-2.207-.852-3.01-.91-1.04-2.477-1.61-4.553-1.61H9.283l-2.23 18.172zm32.146 4.155h3.142l.772-6.283c.804 1.272 2.09 2.414 4.375 2.414 3.246 0 6.677-2.57 7.235-7.114l.006-.05c.56-4.57-2.268-7.115-5.488-7.115-2.23 0-3.8 1.142-4.987 2.57l.28-2.285h-3.14l-2.195 17.863zm22.646-3.87c2.23 0 3.8-1.14 4.988-2.57l-.28 2.285h3.14l1.684-13.708h-3.14l-.263 2.13c-.826-1.3-2.117-2.415-4.376-2.415-3.27 0-6.676 2.57-7.234 7.114l-.006.05c-.56 4.544 2.267 7.114 5.487 7.114zm-23.672 12.17l-.346 2.83h25.312c5.286 0 8.262-2.83 9.798-4.855l3.108 5.735a1.414 1.414 0 0 0 2.618-.34l6.37-27.88L88.01 50.95a1.653 1.653 0 0 0 3.13.594l4.788-9.932c.9 1.39 2.3 2.9 4.43 2.9H102V102H0V0h102v41.684h-1.642c-1.278 0-2.26-1.89-2.787-2.906-.27-.52-.447-.862-.72-1.126a1.414 1.414 0 0 0-2.235.363l-4.167 8.904-3.215-35.51a1.815 1.815 0 0 0-3.568-.248l-6.882 29.656-2.466-4.55a1.416 1.416 0 0 0-2.024-.506c-.316.21-.476.47-.74.896-.852 1.375-3.114 5.026-8.415 5.026H38.172zm24.76-14.895c2.1 0 4.188-1.765 4.51-4.388l.006-.05c.326-2.65-1.33-4.39-3.433-4.39-2.154 0-4.15 1.663-4.484 4.39l-.006.05c-.325 2.65 1.28 4.388 3.407 4.388zm-15.863 0c2.154 0 4.127-1.688 4.458-4.388l.007-.05c.325-2.65-1.253-4.39-3.38-4.39-2.13 0-4.216 1.767-4.538 4.39l-.006.05c-.32 2.623 1.33 4.388 3.46 4.388zm-27.422-2.883l.006-.05c.188-1.532-.92-2.44-3.44-2.44h-5.062L10.54 26.4h5.296c2.18 0 3.61-.857 3.812-2.495zm-3.803-5.19h-4.36l.593-4.83h4.594c2.05 0 3.086.883 2.91 2.31l-.007.052c-.204 1.662-1.68 2.467-3.73 2.467z" id="Fill-1" fill="#0079C8" mask="url(#mask-2)"/></g></g></g></svg>