<?xml version="1.0" encoding="utf-8"?>
<!-- Generator: Adobe Illustrator 26.0.3, SVG Export Plug-In . SVG Version: 6.00 Build 0)  -->
<svg version="1.0" id="Layer_1" xmlns="http://www.w3.org/2000/svg" xmlns:xlink="http://www.w3.org/1999/xlink" x="0px" y="0px"
	 viewBox="0 0 651.5 487.6" style="enable-background:new 0 0 651.5 487.6;" xml:space="preserve">
<style type="text/css">
	.st0{fill:#181E53;}
	.st1{fill:#59C8D7;}
</style>
<g id="layer1">
	<g id="g37757">
		<path id="path35166" class="st0" d="M78.5,164.6h2.4v66h-2.4V164.6z"/>
		<path id="path35176" class="st1" d="M97.6,164.6h19.8v66H97.6V164.6z"/>
		<path id="path35186" class="st0" d="M132.4,164.6h9.8v66h-9.8V164.6z"/>
		<path id="path35196" class="st0" d="M360,214.7L360,214.7c-14.1,0-19.5,5.9-21.6,8.1l-3.3-6.7h-25.9v14.5h6V323h20.4v-35.4
			c4.2,3.8,10.9,6.7,19.2,6.7c26.9,0,38-19.6,38-41.7C392.8,230.3,379.3,214.7,360,214.7L360,214.7z M372.3,253.5L372.3,253.5
			c0,15.6-7.5,24.9-19.8,24.9c-12,0-17.5-7.6-17.5-23.8c0-16.8,5.5-24,18.3-24C364.8,230.5,372.3,239.5,372.3,253.5L372.3,253.5z
			 M547.5,258.5L547.5,258.5v1.3c0,9.4-2.1,20.3-17.7,20.3c-7.6,0-12.3-4.2-12.3-10.7c0-5.6,2.2-10.9,18.7-10.9H547.5z M567.4,278.2
			L567.4,278.2v-38.5c0-16.8-10.7-25-32.8-25c-5.8,0-14.9,0.7-17.4,0.9v15.2c0,0,10.7-0.8,16.9-0.8c9,0,13.3,3.3,13.3,10.1v5h-12.8
			c-24.9,0-37.4,8.5-37.4,25.4c0,11.1,7.1,23.7,27.1,23.7c15.7,0,22.1-5,24.1-7.3l2.9,6l21.8-0.1v-14.6L567.4,278.2z M147.5,246.1
			L147.5,246.1c0,20.2,9.3,32.4,24.7,32.4c9.6,0,16.2-3.9,20.4-13.4h22.9c-4.2,14.7-15.2,29.9-43.8,29.9
			c-29.3,0-46.7-17.9-46.7-48.2c0-13.5,4.4-25.8,12.4-34.7c8.6-9.4,20.8-14.4,35.2-14.4c33.9,0,43.3,24,43.3,33h-22.6
			c-1.8-8.4-6.8-16.4-20.9-16.4C157,214.3,147.5,226.5,147.5,246.1z M273.8,258.4L273.8,258.4v1.3c0,9.4-2,20.3-17.5,20.3
			c-7.6,0-12.4-4.2-12.4-10.7c0-5.6,2.4-10.9,18.7-10.9H273.8z M293.8,278.2L293.8,278.2v-38.5c0-16.8-10.7-25-32.8-25
			c-5.8,0-14.9,0.7-17.4,0.9v15.2c0,0,10.7-0.8,16.9-0.8c9,0,13.3,3.3,13.3,10.1v5h-12.8c-24.9,0-37.4,8.5-37.4,25.4
			c0,11.1,7.1,23.7,26.9,23.7c15.8,0,22.2-5,24.1-7.3l3,6l21.9-0.1v-14.6L293.8,278.2z M472.4,216.1h16.1v14.5h-16.1v39.2
			c0,5.9,1.3,9.2,8.6,9.2c1.8,0,3.6-0.1,5.4-0.3v14c-3.5,1.2-8.5,1.6-14,1.6c-14.4,0-20.5-6.5-20.5-21.6v-42h-5.9v-14.6h5.9v-12.8
			h20.5V216.1z M408.2,183.8h20.4v21.6h-20.4V183.8z M402.8,216.1h25.9v76.8h-20.4v-62.2h-5.5V216.1z"/>
	</g>
</g>
</svg>
