<?xml version="1.0" encoding="utf-8"?>
<!-- Generator: Adobe Illustrator 20.0.0, SVG Export Plug-In . SVG Version: 6.00 Build 0)  -->
<svg version="1.1" id="Layer_1" xmlns="http://www.w3.org/2000/svg" xmlns:xlink="http://www.w3.org/1999/xlink" x="0px" y="0px"
	 viewBox="0 0 423 93.3" style="enable-background:new 0 0 423 93.3;" xml:space="preserve">
<style type="text/css">
	.st0{fill:#FFFFFF;}
	.st1{fill:#F47853;}
</style>
<path class="st0" d="M273.2,34.8h-12V16.1c0-0.4-0.3-0.7-0.7-0.7h-7.7c-0.4,0-0.7,0.3-0.7,0.7v25.7c0,0.4,0.3,0.7,0.7,0.7h20.4
	c0.4,0,0.7-0.3,0.7-0.7v-6.4C273.9,35.1,273.6,34.8,273.2,34.8 M360.4,25.7c0,1.7-1.3,2.6-3.5,2.6H353V23h3.9
	C359.1,23,360.4,23.8,360.4,25.7L360.4,25.7z M364.5,33.9c-0.2-0.3-0.1-0.8,0.2-1c2.9-1.6,4.7-4.3,4.7-7.9v-0.1
	c0-2.8-0.9-4.8-2.5-6.4c-1.9-1.9-5-3.1-9.8-3.1h-12.6c-0.4,0-0.7,0.3-0.7,0.7v25.7c0,0.4,0.3,0.7,0.7,0.7h7.7c0.4,0,0.7-0.3,0.7-0.7
	v-7.1h1.9l4.9,7.4c0.1,0.2,0.3,0.3,0.6,0.3h8.7c0.6,0,0.9-0.6,0.6-1.1L364.5,33.9z M332.6,29c0,3.2-2.2,6-5.6,6
	c-3.5,0-5.7-2.9-5.7-6.1v-0.1c0-3.2,2.2-6,5.6-6C330.4,22.8,332.6,25.7,332.6,29L332.6,29z M327,14.8c-8.4,0-14.8,6.3-14.8,14.1V29
	c0,7.9,6.4,14,14.7,14c8.4,0,14.8-6.3,14.8-14.1v-0.1C341.7,21,335.3,14.8,327,14.8 M249,35.1h-13.7v-0.7l0,0v-1.6l0,0v-0.7h12.6
	c0.4,0,0.7-0.3,0.7-0.7v-5.2c0-0.4-0.3-0.7-0.7-0.7h-12.6v-0.7l0,0v-1.4l0,0v-0.7h13.5c0.4,0,0.7-0.3,0.7-0.7v-6.1
	c0-0.4-0.3-0.7-0.7-0.7h-21.7c-0.4,0-0.7,0.3-0.7,0.7v25.7c0,0.4,0.3,0.7,0.7,0.7H249c0.4,0,0.7-0.3,0.7-0.7v-6.1
	C249.7,35.4,249.4,35.1,249,35.1 M393.5,34.8h-12V16.1c0-0.4-0.3-0.7-0.7-0.7h-7.7c-0.4,0-0.7,0.3-0.7,0.7v25.7
	c0,0.4,0.3,0.7,0.7,0.7h20.4c0.4,0,0.7-0.3,0.7-0.7v-6.4C394.2,35.1,393.9,34.8,393.5,34.8 M312.4,15.4h-7.9c-0.3,0-0.6,0.2-0.7,0.5
	l-3.1,10.4c-0.2,0.6-1.1,0.7-1.3,0l-3.5-10.5c-0.1-0.3-0.4-0.5-0.7-0.5h-6.7c-0.3,0-0.6,0.2-0.6,0.5l-3.5,10.5
	c-0.2,0.6-1.1,0.6-1.3,0L280,15.9c-0.1-0.3-0.4-0.5-0.7-0.5h-8c-0.5,0-0.8,0.5-0.7,0.9l8.4,25.9c0.1,0.3,0.4,0.5,0.7,0.5h6.9
	c0.3,0,0.5-0.2,0.6-0.5l4-11.2c0.2-0.6,1.1-0.6,1.3,0l4,11.2c0.1,0.3,0.4,0.5,0.6,0.5h6.9c0.3,0,0.6-0.2,0.7-0.5l8.4-25.9
	C313.2,15.9,312.9,15.4,312.4,15.4 M138.1,15.4h-7.7c-0.4,0-0.7,0.3-0.7,0.7V25h-8.2v-8.9c0-0.4-0.3-0.7-0.7-0.7h-7.7
	c-0.4,0-0.7,0.3-0.7,0.7v25.7c0,0.4,0.3,0.7,0.7,0.7h7.7c0.4,0,0.7-0.3,0.7-0.7v-9h8.3v9c0,0.4,0.3,0.7,0.7,0.7h7.7
	c0.4,0,0.7-0.3,0.7-0.7V16.1C138.8,15.7,138.5,15.4,138.1,15.4 M413.8,29c0,3.9-2.7,5.6-6.8,5.6h-1.5V23.3h1.5
	C411.1,23.3,413.8,25,413.8,29L413.8,29z M406.8,15.4h-9.7c-0.4,0-0.7,0.3-0.7,0.7v25.7c0,0.4,0.3,0.7,0.7,0.7h9.4
	c11,0,16.5-5.7,16.5-13.7v-0.1C422.9,20.7,417.5,15.4,406.8,15.4 M185.6,25c-2.9-0.5-3.6-1-3.6-1.7v-0.1c0-0.7,0.6-1.1,2-1.1
	c2.3,0,5.2,0.7,7.6,2.3c0.3,0.2,0.7,0.1,0.9-0.2l3.6-5c0.2-0.3,0.1-0.7-0.2-1c-3-2.2-6.8-3.3-11.7-3.3c-7.5,0-11.5,4-11.5,9.1v0.1
	c0,5.7,5.3,7.5,11.4,8.7c2.9,0.6,3.8,1,3.8,1.8v0.1c0,0.7-0.7,1.2-2.3,1.2c-3,0-6.2-0.8-9-2.8c-0.3-0.2-0.7-0.1-0.9,0.1l-4,4.7
	c-0.3,0.3-0.2,0.7,0.1,1c3.4,2.7,8.1,4.1,13.4,4.1c7.3,0,12-3.5,12-9.2v-0.1C197.1,28.3,192.5,26.3,185.6,25 M222.9,15.4h-23.6
	c-0.4,0-0.7,0.3-0.7,0.7v6.3c0,0.4,0.3,0.7,0.7,0.7h7.3v18.7c0,0.4,0.3,0.7,0.7,0.7h7.7c0.4,0,0.7-0.3,0.7-0.7V23.1h7.3
	c0.4,0,0.7-0.3,0.7-0.7v-6.3C223.6,15.7,223.3,15.4,222.9,15.4 M161.7,29c0,3.2-2.2,6-5.6,6c-3.5,0-5.7-2.9-5.7-6.1v-0.1
	c0-3.2,2.2-6,5.6-6C159.5,22.8,161.7,25.7,161.7,29L161.7,29z M156.1,14.8c-8.4,0-14.8,6.3-14.8,14.1V29c0,7.9,6.4,14,14.7,14
	c8.4,0,14.8-6.3,14.8-14.1v-0.1C170.9,21,164.5,14.8,156.1,14.8"/>
<defs>
	<mask id="hostelworld-mask">
		<path fill="white" d="M93.3,80.3c0,7.2-5.8,13-13,13H13c-7.2,0-13-5.8-13-13V13C0,5.8,5.8,0,13,0h67.3c7.2,0,13,5.8,13,13V80.3z"/>
		<path fill="black" d="M77.2,14.8H58.5c-0.7,0-1.3,0.6-1.3,1.3v16.7h2.1c0.3,0,0.5,0.3,0.5,0.6c0,0.1,0,0.2-0.1,0.3l-12,12.2
			c-0.2,0.2-0.3,0.5-0.3,0.8s0.1,0.6,0.3,0.8l12,12.2c0.1,0.1,0.1,0.2,0.1,0.3c0,0.3-0.2,0.5-0.5,0.6h-2.1v16.7c0,0.7,0.6,1.3,1.3,1.3
			h18.7c0.7,0,1.3-0.6,1.3-1.3V16.2C78.4,15.4,77.9,14.8,77.2,14.8 M33.6,33.7L33.6,33.7c-0.1-0.1-0.2-0.2-0.2-0.4
			c0-0.3,0.2-0.5,0.5-0.6H36V16c0-0.7-0.6-1.3-1.3-1.3H16c-0.7,0-1.3,0.6-1.3,1.3v61.1c0,0.7,0.6,1.3,1.3,1.3h18.7
			c0.7,0,1.3-0.6,1.3-1.3V60.4h-2.1c-0.3,0-0.5-0.3-0.5-0.6c0-0.2,0.1-0.3,0.2-0.4l0,0l11.9-12.1c0.2-0.2,0.3-0.5,0.3-0.8
			s-0.1-0.6-0.3-0.8L33.6,33.7z"/>
	</mask>
</defs>
<path class="st1" d="M93.3,80.3c0,7.2-5.8,13-13,13H13c-7.2,0-13-5.8-13-13V13C0,5.8,5.8,0,13,0h67.3c7.2,0,13,5.8,13,13V80.3z" mask="url(#hostelworld-mask)"/>
<g>
	<path class="st0" d="M138.7,54.1c0,0.2-0.1,0.4-0.3,0.7l-4.3,5.3c-0.2,0.2-0.3,0.3-0.5,0.3s-0.4-0.1-0.5-0.2c0-0.1-0.3-0.3-0.8-0.7
		c-0.5-0.4-1.2-0.8-2.1-1.1c-0.9-0.3-1.8-0.5-2.9-0.5c-1.3,0-2.3,0.3-3.2,0.9s-1.6,1.4-2,2.4c-0.5,1-0.7,2.1-0.7,3.2
		s0.2,2.2,0.7,3.2s1.1,1.8,2,2.5c0.9,0.6,2,1,3.4,1c0.5,0,1,0,1.4-0.1c0.5-0.1,0.9-0.2,1.2-0.3c0.3-0.1,0.5-0.2,0.6-0.2v-6.8
		c0-0.2,0.1-0.4,0.2-0.5s0.2-0.2,0.4-0.2c0.1,0,0.2,0,0.2,0h7.4c0,0,0.1,0,0.2,0s0.2,0.1,0.3,0.2s0.2,0.3,0.2,0.5v11
		c0,0.2-0.4,0.6-1.3,1.3c-0.9,0.7-2.3,1.4-4.2,2s-4.4,1-7.4,1c-2.8,0-5.3-0.6-7.6-1.9s-4.1-3-5.4-5.2c-1.3-2.2-2-4.6-2-7.3
		c0-2.7,0.7-5.2,2-7.5s3.1-4,5.5-5.4c2.3-1.3,5-2,7.9-2c2.4,0,4.4,0.3,6.1,0.8c1.7,0.5,2.9,1.1,3.8,1.7c0.9,0.6,1.3,1,1.3,1.1
		C138.5,53.7,138.7,53.9,138.7,54.1z"/>
	<path class="st0" d="M164,52.8c2.4,1.5,3.6,4.1,3.6,7.6c0,1.9-0.4,3.6-1.2,5s-2,2.5-3.5,3.3c-0.4,0.2-0.6,0.5-0.6,0.7
		c0,0.1,0,0.2,0.1,0.4l5.2,7.7c0.1,0.1,0.1,0.2,0.1,0.4c0,0.2-0.1,0.4-0.2,0.5c-0.1,0.1-0.3,0.2-0.6,0.2h-8c-0.5,0-0.9,0-1.1-0.1
		s-0.5-0.3-0.7-0.7l-4.7-7.2h-2.1v7.2c0,0.2-0.1,0.4-0.2,0.5s-0.2,0.2-0.4,0.2c-0.1,0-0.2,0-0.2,0h-7.6c0,0-0.1,0-0.2,0
		c-0.1,0-0.3-0.1-0.4-0.2s-0.2-0.3-0.2-0.5V51.3c0-0.2,0.1-0.4,0.2-0.5s0.2-0.2,0.4-0.2c0.1,0,0.2,0,0.2,0h12.9
		C158.5,50.5,161.6,51.2,164,52.8z M157.4,59.1c-0.6-0.5-1.5-0.8-2.6-0.8h-4.6v5.5h4.6c1.1,0,2-0.3,2.6-0.8s0.9-1.2,0.9-1.9
		C158.3,60.3,158,59.6,157.4,59.1z"/>
	<path class="st0" d="M170.3,56.6c1.4-2.2,3.2-3.9,5.5-5s4.7-1.7,7.3-1.7c2.7,0,5.2,0.6,7.6,1.7s4.3,2.8,5.8,5s2.2,4.9,2.2,7.9
		s-0.7,5.7-2.2,7.9c-1.5,2.2-3.4,3.9-5.8,5s-4.9,1.7-7.6,1.7c-2.6,0-5-0.6-7.3-1.7s-4.1-2.8-5.5-5s-2.1-4.8-2.1-7.9
		S169,58.8,170.3,56.6z M178.4,67.7c0.5,0.9,1.2,1.6,2,2.1s1.7,0.7,2.7,0.7s1.9-0.2,2.7-0.7c0.8-0.5,1.5-1.2,2-2.1s0.8-2,0.8-3.2
		c0-1.3-0.3-2.3-0.8-3.2c-0.5-0.9-1.2-1.6-2-2.1s-1.7-0.7-2.7-0.7s-1.8,0.2-2.7,0.7c-0.8,0.5-1.5,1.2-2,2.1s-0.8,2-0.8,3.2
		S177.8,66.8,178.4,67.7z"/>
	<path class="st0" d="M223.6,75.7c-2.3,2.2-5.7,3.3-10.2,3.3s-7.9-1.1-10.2-3.3c-2.4-2.2-3.5-5.4-3.5-9.5v-15c0-0.2,0.1-0.4,0.2-0.5
		s0.2-0.2,0.4-0.2c0.1,0,0.2,0,0.2,0h8c0,0,0.1,0,0.2,0s0.3,0.1,0.4,0.2s0.2,0.3,0.2,0.5v14.7c0,1.5,0.4,2.7,1.3,3.5
		c0.8,0.8,1.8,1.3,3,1.3c1.1,0,2.1-0.4,3-1.3c0.9-0.8,1.3-2,1.3-3.5V51.2c0-0.2,0.1-0.4,0.2-0.5s0.2-0.2,0.3-0.2c0.1,0,0.2,0,0.2,0
		h8c0,0,0.1,0,0.2,0s0.3,0.1,0.4,0.2s0.2,0.3,0.2,0.5v15C227.1,70.3,226,73.5,223.6,75.7z"/>
	<path class="st0" d="M250.5,52.9c2.2,1.6,3.3,4.3,3.3,7.9c0,3.5-1.1,6.1-3.3,7.8s-5.4,2.5-9.5,2.5h-3v6.6c0,0.2-0.1,0.4-0.2,0.5
		s-0.2,0.2-0.4,0.2c-0.1,0-0.2,0-0.2,0h-7.6c0,0-0.1,0-0.2,0s-0.3-0.1-0.4-0.2s-0.2-0.3-0.2-0.5V51.2c0-0.2,0.1-0.4,0.2-0.5
		s0.2-0.2,0.4-0.2c0.1,0,0.2,0,0.2,0h11.3C245.1,50.5,248.3,51.3,250.5,52.9z M244.2,63.1c0.6-0.6,0.9-1.3,0.9-2.1
		c0-0.8-0.3-1.5-0.9-2.1s-1.4-0.9-2.5-0.9H238v6.1h3.7C242.7,64,243.6,63.7,244.2,63.1z"/>
</g>
</svg>
