<svg id="Layer_1" data-name="Layer 1" xmlns="http://www.w3.org/2000/svg" viewBox="0 0 702 93.43"><title>Nationwide logo - Brandlogos.net</title><path d="M111.74,355.24A36.4,36.4,0,0,0,39,357.45a35.68,35.68,0,0,0,10.23,25.14l24-27.34h38.48ZM88.65,413.07h46.27V382.79l-23.2-27.54L88.64,382.79v30.28h0Z" transform="translate(-39 -321.07)" style="fill:#f9383d"/><path d="M606.78,412.94h-18v-55.4h18v55.41Zm-19-70.36a10,10,0,1,1,10,10A9.58,9.58,0,0,1,587.77,342.57Zm-229.3,15v55.4h-18v-55.4Zm-19-15a10,10,0,1,1,10,10A9.58,9.58,0,0,1,339.45,342.57Zm-22.55,15V343.94H305.32l-1.38,5.62c-1.37,5.11-3,8-8.55,9l-4,.63v11h7.75v28c0,12.47,8.13,16.34,17.15,16.34,7.25,0,12-1.74,16.15-4.87V398.14a22.07,22.07,0,0,1-9,2.25c-4.25,0-6.51-2-6.51-6.73V370.14h14.76V357.53H316.9v0ZM166.74,412.94h18V385.24c0-9,4-14.72,11-14.72,6.25,0,9.25,4.11,9.25,12.34v30.07h18V377.76c0-14.1-7.37-21.72-19.52-21.72-10.13,0-16.51,5.37-18.77,13.61V357.53h-18v55.41Z" transform="translate(-39 -321.07)" style="fill:#011546"/><path d="M396.06,356c-18.13,0-30,12.23-30,29.57s11.88,28.82,30,28.82,30.39-11.48,30.39-28.82S414.31,356,396.06,356Zm0,44.54c-7.63,0-12.38-5.5-12.38-15s4.74-15.72,12.38-15.72,12.76,6.24,12.76,15.72S403.69,400.58,396.06,400.58Z" transform="translate(-39 -321.07)" style="fill:#011546"/><path d="M450.88,412.94h-18v-55.4h18v12.11c2.24-8.23,8.63-13.6,18.77-13.6,12.14,0,19.52,7.61,19.52,21.72v35.18h-18V382.88c0-8.23-3-12.34-9.25-12.34-7,0-11,5.73-11,14.72V413Zm105.79-19.21h-.51L547,357.55H530l-9.25,36.18h-.5l-9.64-36.18h-18L509,412.94h19.13L537.39,377h.5l9.25,35.92h19.14l16.5-55.4H566.41l-9.76,36.18h0Z" transform="translate(-39 -321.07)" style="fill:#011546"/><path d="M639.81,356c-14.5,0-25.27,11.23-25.27,29.19s10.76,29.19,25.27,29.19c7.75,0,15.53-4.24,18.39-11.35v9.85h18.13V334.75H658.2v32.78C655.46,360.42,647.69,356,639.81,356Zm5.75,14.23c7.63,0,12.64,5.62,12.64,14.34v1.24c0,8.86-5,14.47-12.64,14.47s-12.76-5.85-12.76-15.1,5-15,12.76-15Zm94,27.89c-3.83,10.38-13.19,16.34-26.3,16.34-17.67,0-30.22-10.76-30.22-28.39S695.86,356,712.91,356C731.35,356,741,368.6,741,383.74v5.5H700.88c.5,7.38,6,11.64,13,11.64,5.83,0,9.59-2,11.7-6.45l14,3.74,0,0Zm-38.45-18.56h22.44c-.37-5.5-3.88-10.51-10.79-10.51C705.53,369.1,702.14,373.74,701.14,379.61Zm-451.34,2c-12.28,2-20.32,6.89-20.32,17.51,0,9.5,7,15.13,18.18,15.13,8.66,0,15.56-3.38,18.68-9.76,1.63,6.25,6.52,9.76,13.17,9.76a18.76,18.76,0,0,0,11.79-3.63V401a10.3,10.3,0,0,1-4.64,1c-2.26,0-3.51-1.26-3.51-4.13V377.6c0-15.13-10.41-21.64-25-21.64s-23.63,7.22-26.25,17.87l16.37,3.38c1-4.56,3.66-7.73,8.88-7.73,5.52,0,8.15,3.14,8.15,8.38v1.26l-15.56,2.5ZM247,397.12c0-4.38,3.51-5.87,9.16-6.89l9.14-1.62v2.12c0,7.89-5.27,11.64-11.91,11.64-3.88,0-6.39-2-6.39-5.25Z" transform="translate(-39 -321.07)" style="fill:#011546"/></svg>